<svg fill="#fff" id="Capa_1" enable-background="new 0 0 512 512" height="512" viewBox="0 0 512 512" width="512" xmlns="http://www.w3.org/2000/svg"><g><path d="m225.764 131.789c22.133 17.42 44.026 29.021 44.948 29.506 2.188 1.153 4.59 1.729 6.991 1.729 2.416 0 4.833-.583 7.031-1.75.914-.485 22.651-12.085 44.699-29.502 31.933-25.224 48.204-49.733 48.364-72.847.108-15.634-5.922-30.376-16.979-41.511-11.152-11.229-26.011-17.414-41.841-17.414-15.764 0-30.493 6.346-41.273 16.976-10.781-10.63-25.511-16.976-41.274-16.976-32.21 0-58.598 26.341-58.822 58.718-.161 23.21 16.041 47.795 48.156 73.071zm10.666-101.789c12.159 0 23.063 7.724 27.134 19.219 2.121 5.989 7.785 9.993 14.14 9.993s12.019-4.004 14.14-9.993c4.069-11.495 14.973-19.219 27.133-19.219 7.777 0 15.077 3.038 20.555 8.554 5.384 5.422 8.319 12.582 8.267 20.164-.052 7.591-4.882 24.085-36.639 49.26-12.834 10.174-25.842 18.311-33.533 22.845-26.745-15.544-70.186-47.746-70.019-71.896.11-15.951 13.039-28.927 28.822-28.927z"/><path d="m401.108 377.31h-60.811c-8.284 0-15 6.716-15 15v7.532h-119.189v-7.532c0-8.284-6.716-15-15-15h-60.811c-8.284 0-15 6.716-15 15v104.69c0 8.284 6.716 15 15 15h60.811c8.284 0 15-6.716 15-15v-7.532h119.189v7.532c0 8.284 6.716 15 15 15h60.811c8.284 0 15-6.716 15-15v-104.69c0-8.284-6.715-15-15-15zm-225 104.69h-30.811v-74.69h30.811zm30-22.532v-29.625h119.189v29.625zm180 22.532h-30.811v-74.69h30.811z"/><path d="m153.087 334.977c22.456-22.456 45.677-45.677 45.434-80.935-.158-22.832-11.299-43.127-28.336-55.817 16.496-21.992 13.923-52.215 13.539-55.874-.74-7.044-6.307-12.61-13.351-13.351-3.666-.384-34.01-2.967-56.015 13.647-.524-7.808-7.007-13.984-14.949-13.984-8.284 0-15 6.716-15 15v42.346c-4.721-1-9.558-1.525-14.45-1.525-38.145 0-69.395 31.203-69.66 69.557-.243 35.258 22.977 58.479 45.434 80.935 18.039 18.041 37.951 8.892 49.848 3.425 1.309-.601 2.587-1.188 3.83-1.736 1.243.548 2.521 1.136 3.828 1.736 6.623 3.044 15.728 7.229 25.612 7.228 7.872 0 16.239-2.654 24.236-10.652zm.453-175.795c-1.008 8.213-3.63 17.692-9.604 23.667-.954.954-2.031 1.848-3.214 2.68-3.859-.673-7.818-1.043-11.861-1.043-2.414 0-4.813.135-7.194.381 1.565-6.252 4.181-12.048 8.209-16.077 5.976-5.978 15.461-8.6 23.664-9.608zm-37.775 151.96c-3.62-1.663-7.364-3.384-11.466-4.798-3.168-1.092-6.611-1.092-9.779 0-4.102 1.414-7.846 3.135-11.466 4.798-12.833 5.898-13.591 5.139-16.108 2.622-22.899-22.899-36.793-38.333-36.646-59.515.151-21.926 17.943-39.764 39.66-39.764 7.496 0 14.772 2.1 21.066 6.076 5.006 3.364 11.691 3.377 16.71.037 6.306-4 13.605-6.113 21.125-6.113 21.717 0 39.509 17.838 39.66 39.764.146 21.182-13.747 36.615-36.646 59.515-2.517 2.516-3.274 3.276-16.11-2.622z"/><path d="m511.54 134.302c0-4.646-2.153-9.031-5.831-11.872-3.678-2.84-8.465-3.817-12.96-2.641l-114.837 30c-6.603 1.725-11.209 7.688-11.209 14.513v93.713c-4.356-1.441-9.008-2.234-13.847-2.234-24.177 0-43.847 19.496-43.847 43.459s19.67 43.458 43.847 43.458 43.847-19.495 43.847-43.458v-63.455l85-22.205v54.435c-4.356-1.441-9.008-2.233-13.847-2.233-24.177 0-43.847 19.496-43.847 43.459s19.67 43.458 43.847 43.458 43.847-19.495 43.847-43.458zm-158.684 178.396c-7.635 0-13.847-6.037-13.847-13.458s6.212-13.459 13.847-13.459 13.847 6.038 13.847 13.459-6.212 13.458-13.847 13.458zm128.684-130.082-84.837 22.163v-28.893l84.837-22.163zm-13.684 140.082c-7.635 0-13.847-6.037-13.847-13.458s6.212-13.459 13.847-13.459 13.847 6.038 13.847 13.459-6.212 13.458-13.847 13.458z"/></g></svg>